<svg xmlns="http://www.w3.org/2000/svg" width="18.278" height="18.278" viewBox="0 0 18.278 18.278">
  <path id="np_calender_4043158_000000" d="M3.125,15.852a5.557,5.557,0,0,0,5.55,5.55h7.177a5.557,5.557,0,0,0,5.55-5.55V10.436H3.124Zm13.4-3.588a.609.609,0,0,1,.609-.609h1.219a.608.608,0,0,1,.609.609v1.219a.608.608,0,0,1-.609.609H17.137a.609.609,0,0,1-.609-.609Zm0,3.656a.609.609,0,0,1,.609-.609h1.219a.608.608,0,0,1,.609.609v1.219a.608.608,0,0,1-.609.609H17.137a.609.609,0,0,1-.609-.609Zm-3.656-3.656a.609.609,0,0,1,.609-.609H14.7a.608.608,0,0,1,.609.609v1.219a.608.608,0,0,1-.609.609H13.482a.609.609,0,0,1-.609-.609Zm0,3.656a.609.609,0,0,1,.609-.609H14.7a.608.608,0,0,1,.609.609v1.219a.608.608,0,0,1-.609.609H13.482a.609.609,0,0,1-.609-.609ZM9.217,12.264a.609.609,0,0,1,.609-.609h1.219a.608.608,0,0,1,.609.609v1.219a.608.608,0,0,1-.609.609H9.826a.609.609,0,0,1-.609-.609Zm0,3.656a.609.609,0,0,1,.609-.609h1.219a.608.608,0,0,1,.609.609v1.219a.608.608,0,0,1-.609.609H9.826a.609.609,0,0,1-.609-.609ZM5.562,12.264a.609.609,0,0,1,.609-.609H7.389A.608.608,0,0,1,8,12.264v1.219a.608.608,0,0,1-.609.609H6.171a.609.609,0,0,1-.609-.609Zm0,3.656a.609.609,0,0,1,.609-.609H7.389A.608.608,0,0,1,8,15.919v1.219a.608.608,0,0,1-.609.609H6.171a.609.609,0,0,1-.609-.609ZM4.4,9.217H3.179A5.555,5.555,0,0,1,8,4.386V3.734a.609.609,0,0,1,1.219,0v.609H15.31V3.734a.609.609,0,1,1,1.219,0v.652a5.558,5.558,0,0,1,4.831,4.831H20.141a4.343,4.343,0,0,0-3.613-3.6v.554a.609.609,0,0,1-1.219,0V5.562H9.217v.609A.609.609,0,0,1,8,6.171V5.617a4.346,4.346,0,0,0-3.6,3.6Z" transform="translate(-3.124 -3.125)" fill="#7b7b7b"/>
</svg>
