<svg id="np_clock_888722_000000" xmlns="http://www.w3.org/2000/svg" width="17.873" height="17.873" viewBox="0 0 17.873 17.873">
  <path id="Path_5902" data-name="Path 5902" d="M25.6,18.9a6.7,6.7,0,1,1-6.7,6.7,6.722,6.722,0,0,1,6.7-6.7m0-2.234A8.937,8.937,0,1,0,34.541,25.6,8.963,8.963,0,0,0,25.6,16.668Z" transform="translate(-16.668 -16.668)" fill="#7b7b7b"/>
  <path id="Path_5903" data-name="Path 5903" d="M51.4,44.8a1.045,1.045,0,0,1-.447-.112l-4.077-2.569V39.381a.838.838,0,0,1,1.676,0v1.788l3.3,2.066a.881.881,0,0,1,.28,1.173.958.958,0,0,1-.727.391Z" transform="translate(-38.776 -32.678)" fill="#7b7b7b"/>
  <path id="Path_5904" data-name="Path 5904" d="M49.034,27.643a.558.558,0,1,1-1.116,0,.558.558,0,1,1,1.116,0" transform="translate(-39.54 -24.292)" fill="#7b7b7b"/>
  <path id="Path_5905" data-name="Path 5905" d="M28.2,48.475a.559.559,0,0,1-1.117,0,.559.559,0,0,1,1.117,0" transform="translate(-24.29 -39.539)" fill="#7b7b7b"/>
  <path id="Path_5906" data-name="Path 5906" d="M49.034,69.307a.558.558,0,1,1-1.116,0,.558.558,0,1,1,1.116,0" transform="translate(-39.54 -54.786)" fill="#7b7b7b"/>
  <path id="Path_5907" data-name="Path 5907" d="M69.867,48.475a.559.559,0,0,1-1.117,0,.559.559,0,0,1,1.117,0" transform="translate(-54.786 -39.539)" fill="#7b7b7b"/>
</svg>
